<svg xmlns="http://www.w3.org/2000/svg" xmlns:svg="http://www.w3.org/2000/svg" id="svg2" width="100%" height="100%" version="1.1" viewBox="0 0 239.999 239.997" xml:space="preserve"><metadata id="metadata8"/><g id="g10" transform="matrix(0.79240039,0,0,-0.79240039,-122.47497,362.47407)"><g id="g12" transform="scale(0.1,0.1)"><path id="path14" d="m 3060,3060 1260,0 c 173.97,46.61 277.21,225.43 230.6,399.4 -46.62,173.97 -225.44,277.21 -399.41,230.6" style="fill:#272727;fill-opacity:1;fill-rule:nonzero;stroke:none"/><path id="path16" d="m 3060,3060 1260,0 c 173.97,46.61 277.21,225.43 230.6,399.4 -46.62,173.97 -225.44,277.21 -399.41,230.6 L 3060,3060 z" style="fill:none;stroke:#000;stroke-width:25.20000076;stroke-linecap:butt;stroke-linejoin:miter;stroke-miterlimit:10;stroke-opacity:1;stroke-dasharray:none"/><path id="path18" d="m 3060,3060 1091.19,630 c 127.36,127.36 127.36,333.84 0,461.19 -127.35,127.36 -333.83,127.36 -461.19,0" style="fill:#3b3b3b;fill-opacity:1;fill-rule:nonzero;stroke:none"/><path id="path20" d="m 3060,3060 1091.19,630 c 127.36,127.36 127.36,333.84 0,461.19 -127.35,127.36 -333.83,127.36 -461.19,0 L 3060,3060 z" style="fill:none;stroke:#000;stroke-width:25.20000076;stroke-linecap:butt;stroke-linejoin:miter;stroke-miterlimit:10;stroke-opacity:1;stroke-dasharray:none"/><path id="path22" d="m 3060,3060 630,1091.19 c 46.61,173.97 -56.63,352.79 -230.6,399.41 -173.97,46.61 -352.79,-56.63 -399.4,-230.6" style="fill:#4e4e4e;fill-opacity:1;fill-rule:nonzero;stroke:none"/><path id="path24" d="m 3060,3060 630,1091.19 c 46.61,173.97 -56.63,352.79 -230.6,399.41 -173.97,46.61 -352.79,-56.63 -399.4,-230.6 l 0,-1260 z" style="fill:none;stroke:#000;stroke-width:25.20000076;stroke-linecap:butt;stroke-linejoin:miter;stroke-miterlimit:10;stroke-opacity:1;stroke-dasharray:none"/><path id="path26" d="m 3060,3060 0,1260 c -46.61,173.97 -225.43,277.21 -399.4,230.6 -173.97,-46.62 -277.21,-225.44 -230.6,-399.41" style="fill:#626262;fill-opacity:1;fill-rule:nonzero;stroke:none"/><path id="path28" d="m 3060,3060 0,1260 c -46.61,173.97 -225.43,277.21 -399.4,230.6 -173.97,-46.62 -277.21,-225.44 -230.6,-399.41 L 3060,3060 z" style="fill:none;stroke:#000;stroke-width:25.20000076;stroke-linecap:butt;stroke-linejoin:miter;stroke-miterlimit:10;stroke-opacity:1;stroke-dasharray:none"/><path id="path30" d="m 3060,3060 -630,1091.19 c -127.36,127.36 -333.84,127.36 -461.19,0 -127.36,-127.35 -127.36,-333.83 0,-461.19" style="fill:#767676;fill-opacity:1;fill-rule:nonzero;stroke:none"/><path id="path32" d="m 3060,3060 -630,1091.19 c -127.36,127.36 -333.84,127.36 -461.19,0 -127.36,-127.35 -127.36,-333.83 0,-461.19 L 3060,3060 z" style="fill:none;stroke:#000;stroke-width:25.20000076;stroke-linecap:butt;stroke-linejoin:miter;stroke-miterlimit:10;stroke-opacity:1;stroke-dasharray:none"/><path id="path34" d="m 3060,3060 -1091.19,630 c -173.97,46.61 -352.79,-56.63 -399.41,-230.6 -46.61,-173.97 56.63,-352.79 230.6,-399.4" style="fill:#898989;fill-opacity:1;fill-rule:nonzero;stroke:none"/><path id="path36" d="m 3060,3060 -1091.19,630 c -173.97,46.61 -352.79,-56.63 -399.41,-230.6 -46.61,-173.97 56.63,-352.79 230.6,-399.4 l 1260,0 z" style="fill:none;stroke:#000;stroke-width:25.20000076;stroke-linecap:butt;stroke-linejoin:miter;stroke-miterlimit:10;stroke-opacity:1;stroke-dasharray:none"/><path id="path38" d="m 3060,3060 -1260,0 c -173.97,-46.61 -277.21,-225.43 -230.6,-399.4 46.62,-173.97 225.44,-277.21 399.41,-230.6" style="fill:#9d9d9d;fill-opacity:1;fill-rule:nonzero;stroke:none"/><path id="path40" d="m 3060,3060 -1260,0 c -173.97,-46.61 -277.21,-225.43 -230.6,-399.4 46.62,-173.97 225.44,-277.21 399.41,-230.6 L 3060,3060 z" style="fill:none;stroke:#000;stroke-width:25.20000076;stroke-linecap:butt;stroke-linejoin:miter;stroke-miterlimit:10;stroke-opacity:1;stroke-dasharray:none"/><path id="path42" d="M 3060,3060 1968.81,2430 c -127.36,-127.36 -127.36,-333.84 0,-461.19 127.35,-127.36 333.83,-127.36 461.19,0" style="fill:#b0b0b0;fill-opacity:1;fill-rule:nonzero;stroke:none"/><path id="path44" d="M 3060,3060 1968.81,2430 c -127.36,-127.36 -127.36,-333.84 0,-461.19 127.35,-127.36 333.83,-127.36 461.19,0 L 3060,3060 z" style="fill:none;stroke:#000;stroke-width:25.20000076;stroke-linecap:butt;stroke-linejoin:miter;stroke-miterlimit:10;stroke-opacity:1;stroke-dasharray:none"/><path id="path46" d="M 3060,3060 2430,1968.81 c -46.61,-173.97 56.63,-352.79 230.6,-399.41 173.97,-46.61 352.79,56.63 399.4,230.6" style="fill:#c4c4c4;fill-opacity:1;fill-rule:nonzero;stroke:none"/><path id="path48" d="M 3060,3060 2430,1968.81 c -46.61,-173.97 56.63,-352.79 230.6,-399.41 173.97,-46.61 352.79,56.63 399.4,230.6 l 0,1260 z" style="fill:none;stroke:#000;stroke-width:25.20000076;stroke-linecap:butt;stroke-linejoin:miter;stroke-miterlimit:10;stroke-opacity:1;stroke-dasharray:none"/><path id="path50" d="m 3060,3060 0,-1260 c 46.61,-173.97 225.43,-277.21 399.4,-230.6 173.97,46.62 277.21,225.44 230.6,399.41" style="fill:#d8d8d8;fill-opacity:1;fill-rule:nonzero;stroke:none"/><path id="path52" d="m 3060,3060 0,-1260 c 46.61,-173.97 225.43,-277.21 399.4,-230.6 173.97,46.62 277.21,225.44 230.6,399.41 L 3060,3060 z" style="fill:none;stroke:#000;stroke-width:25.20000076;stroke-linecap:butt;stroke-linejoin:miter;stroke-miterlimit:10;stroke-opacity:1;stroke-dasharray:none"/><path id="path54" d="m 3060,3060 630,-1091.19 c 127.36,-127.36 333.84,-127.36 461.19,0 127.36,127.35 127.36,333.83 0,461.19" style="fill:#ececec;fill-opacity:1;fill-rule:nonzero;stroke:none"/><path id="path56" d="m 3060,3060 630,-1091.19 c 127.36,-127.36 333.84,-127.36 461.19,0 127.36,127.35 127.36,333.83 0,461.19 L 3060,3060 z" style="fill:none;stroke:#000;stroke-width:25.20000076;stroke-linecap:butt;stroke-linejoin:miter;stroke-miterlimit:10;stroke-opacity:1;stroke-dasharray:none"/><path id="path58" d="m 3060,3060 1091.19,-630 c 173.97,-46.61 352.79,56.63 399.41,230.6 46.61,173.97 -56.63,352.79 -230.6,399.4" style="fill:#fff;fill-opacity:1;fill-rule:nonzero;stroke:none"/><path id="path60" d="m 3060,3060 1091.19,-630 c 173.97,-46.61 352.79,56.63 399.41,230.6 46.61,173.97 -56.63,352.79 -230.6,399.4 l -1260,0 z" style="fill:none;stroke:#000;stroke-width:25.20000076;stroke-linecap:butt;stroke-linejoin:miter;stroke-miterlimit:10;stroke-opacity:1;stroke-dasharray:none"/></g></g></svg>